<?xml version="1.0" encoding="utf-8" ?>
<svg xmlns="http://www.w3.org/2000/svg" xmlns:xlink="http://www.w3.org/1999/xlink" width="512" height="512">
	<path fill="white" transform="scale(0.5 0.5)" d="M-0 -0L1024 0L1024 1024L-0 1024L0 -0Z"/>
	<path transform="scale(0.5 0.5)" d="M416.804 113.207C422.637 112.096 430.943 113.253 436.736 114.357C450.278 116.938 461.532 122.911 473.431 129.615C480.12 133.384 487.074 136.728 493.485 140.982C510.373 152.185 525.065 169.178 536.401 185.872L545.513 200.699L557.292 220.229C559.909 224.773 562.716 229.394 564.402 234.38C565.975 239.03 566.719 244.459 565.675 249.32C564.812 253.337 562.407 256.501 558.823 258.563C552.86 261.994 545.182 259.006 539.104 257.29L534.98 274.58C532.156 285.122 528.215 295.662 523.379 305.435C524.406 306.385 525.464 307.335 526.351 308.422C526.892 309.085 528.09 310.343 528.336 311.062C528.911 312.738 528.001 316.414 527.73 318.162C525.777 330.738 518.425 337.044 509.39 344.972C508.576 345.687 506.134 347.741 505.763 348.729C505.268 350.049 505.51 353.092 505.441 354.568L504.513 371.221C504.231 374.07 502.748 376.354 500.49 378.091C495.685 381.79 486.321 379.242 480.812 378.417L480.914 384.817C480.727 388.747 479.025 393.668 475.922 396.25C471.945 399.559 468.257 399.704 463.436 399.089C463.726 401.936 464.665 406.381 462.823 408.836C461.152 411.063 458.455 411.334 455.908 411.701L454.938 411.837L453.75 413.467C450.437 418.044 450.428 424.129 445.457 427.462L445.062 427.718C448.267 435.16 452.54 442.091 455.917 449.451C463.08 465.062 467.917 481.843 471.09 498.698C473.298 510.43 473.314 522.741 474.013 534.622C475.139 553.786 479.121 574.178 487.444 591.517C488.552 592.304 491.178 591.959 492.635 591.983C496.009 592.036 499.166 592.346 502.5 592.869C511.804 594.325 520.174 598.333 528.431 602.643C541.394 609.411 554.126 617.322 567.796 622.616C577.806 626.493 588.533 630.111 598.983 632.557C613.65 635.99 628.716 638.03 643.265 641.935C647.848 643.164 652.227 644.895 656.5 646.964C658.872 648.113 661.325 649.905 663.883 650.548C668.539 651.72 673.822 651.623 678.628 651.876L705.25 652.998C711.106 653.206 717.073 653.338 722.866 654.262C727.624 655.02 732.242 656.348 737.045 656.91C749.171 658.329 762.024 657.998 773.704 661.881C783.221 665.046 791.04 671.022 795.58 680.086L798.003 684.884C810.154 686.358 823.157 685.459 835.397 685.28L898.97 683.45L905.008 653L911.676 622.25L919.168 582.925L949.023 443.5L960.481 389.469L971.099 339.973C971.873 336.045 970.667 331.298 972.129 327.626L972.402 327C973.969 323.264 976.916 318.62 979.815 315.815C983.183 312.558 988.271 307.626 993.25 307.976C995.492 308.134 997.445 309.209 998.791 311.005C1000.67 313.518 1003 362.19 1002.19 368.492C1000.8 379.261 997.496 390.261 995.015 400.864L986.193 441.203L949.764 609.514L941.361 649.871C938.495 663.185 935.524 676.248 934.051 689.82C933.818 701.452 935.309 713.333 936.016 724.999L937.984 776.575C938.076 780.596 939.5 786.609 938.558 790.389C938.06 792.39 935.969 795.797 934.043 796.611L933.191 796.831L929.75 797.643C925.508 798.491 921.406 798.306 917.109 798.343L898.701 798.533L838.187 799.395L664.037 802.959L576.491 804.872L554.483 805.343C550.217 805.442 545.756 805.776 541.5 805.447C538.278 805.197 530.477 803.808 528.117 801.542C527.454 800.905 526.896 799.397 526.493 798.53C524.32 793.858 524.388 789.768 524.245 784.737L522.368 786.75C517.303 791.786 514.259 792.022 507.384 791.983C506.64 795.25 505.986 799.389 504.013 802.156C502.606 804.13 500.227 805.679 498.067 806.694C489.518 810.711 482.868 807.36 475.407 803.266C474.449 802.741 473.29 801.765 472.203 801.93L468.469 805.131C460.946 810.506 450.158 811.122 441.835 807.272C428.843 801.261 416.834 794.731 404.738 787.062L391.943 778.732C391.245 778.294 389.559 776.941 388.832 776.784C387.927 776.589 386.15 777.013 385.185 777.172L373.731 779.633L347.865 784.879C327.773 788.605 307.417 790.58 287.071 792.228C262.562 794.213 237.603 794.156 213.02 793.815C176.574 793.311 139.019 792.027 103.095 785.345C76.6641 780.428 43.8328 771.008 28.0278 747.401C24.8125 742.598 21.5015 735.098 20.4977 729.406C19.5799 724.202 20.0206 718.446 20.0726 713.168C20.3112 688.958 23.4401 665.658 27.99 641.922L23.25 641.371C21.6643 640.934 21.3195 640.107 20.5463 638.75C20.4577 637.281 20.3397 635.679 20.6338 634.224C21.3857 630.504 22.713 626.73 23.6723 623.041L32.9254 588.897L64.2391 478.25L72.1669 451.387C73.8274 446 75.2628 440.209 77.9977 435.25C83.4689 425.329 93.4751 423.261 103.014 418.869C106.394 417.312 109.792 414.996 112.857 412.9C123.706 405.48 134.699 397.805 144.76 389.35C160.885 375.799 175.39 361.204 193.75 350.472C211.146 340.302 229.035 333.448 248.317 327.775C255.156 325.763 262.369 323.902 269.498 323.357C271.049 323.239 273.07 322.912 274.462 323.747L279.141 326.618C285.051 319.352 290.573 311.553 294.716 303.117C299.491 293.394 302.436 282.324 305.338 271.903L318.369 223.019C324.844 199.606 331.295 175.77 347.271 156.696C352.465 150.494 358.65 145.435 364.633 140.066C370.91 134.433 377.556 127.497 384.606 122.922C393.764 116.98 406.103 114.186 416.804 113.207Z"/>
	<path fill="white" transform="scale(0.5 0.5)" d="M507.898 311.75C509.018 311.929 510.542 312.822 511.268 313.665L509.072 316.878L507.344 319.484L507.048 319.25C507.06 316.801 506.713 313.95 507.898 311.75Z"/>
	<path fill="white" transform="scale(0.5 0.5)" d="M778.201 745.75L780 745.556L780.449 746.25C779.523 748.269 778.532 750.041 777.25 751.855L775.992 752.38L775.25 751.818C775.408 749.327 776.433 747.473 778.201 745.75Z"/>
	<path fill="white" transform="scale(0.5 0.5)" d="M386.696 237.75L387.943 237.667C388.975 238.235 390 238.773 390.75 239.706C392.548 241.945 391.255 246.644 390.963 249.498C389.851 245.381 388.912 241.45 386.696 237.75Z"/>
	<path fill="white" transform="scale(0.5 0.5)" d="M729.082 738.75L730.047 738.534C732.077 738.281 733.154 738.543 734.71 739.75C734.428 741.309 734.142 741.264 732.866 742.25C731.015 742.581 728.709 742.062 727.021 741.25C727.309 740.057 728.187 739.5 729.082 738.75Z"/>
	<path fill="white" transform="scale(0.5 0.5)" d="M922.936 735.009C923.631 738.701 924.925 743.304 924.385 747.063C924.178 748.508 923.83 748.644 922.75 749.493L921.25 749.021C920.611 747.092 921.739 744.19 922.106 742.212C922.547 739.843 922.728 737.409 922.936 735.009Z"/>
	<path fill="#BFBEBF" transform="scale(0.5 0.5)" d="M710.713 738.75L711.565 738.583C713.152 738.38 716.592 738.226 717.719 739.25C717.631 740.488 717.607 741.298 716.997 742.41L715.25 742.744C713.528 742.755 709.599 743.306 708.389 742.25C708.858 740.853 709.79 739.865 710.713 738.75Z"/>
	<path fill="white" transform="scale(0.5 0.5)" d="M816.852 697.232L818.25 697.118L818.529 697.75C817.226 700.712 816.188 703.073 813.514 705.01L812.668 704.25C812.716 703.354 812.673 702.854 812.502 702L811.977 701.782C810.118 700.939 809.659 700.427 808.89 698.5L809.25 697.79L816.852 697.232Z"/>
	<path fill="white" transform="scale(0.5 0.5)" d="M728.984 699.75L729.763 699.648C731.317 699.64 732.763 700.792 733.848 701.75C732.636 704.556 729.408 707.498 727.369 709.844C726.766 710.53 726.65 710.613 725.75 710.979L724.75 709.755L724.25 709.158C724.133 706.314 727.159 701.95 728.984 699.75Z"/>
	<path fill="white" transform="scale(0.5 0.5)" d="M709.407 695.655C710.998 695.533 712.622 695.36 714.203 695.65C715.552 695.898 716.156 695.856 716.939 697C715.486 699.408 714.049 701.638 712.25 703.811L710.32 703.75C707.235 702.465 703.982 699.446 701.306 697.412L709.407 695.655Z"/>
	<path fill="white" transform="scale(0.5 0.5)" d="M546.74 722.185C549.919 723.427 553.308 723.974 556.474 725.198C564.985 728.488 567.571 736.165 572.377 743.114C567.415 739.882 563.613 735.624 559.124 731.86L546.74 722.185Z"/>
	<path fill="white" transform="scale(0.5 0.5)" d="M494.725 316.75C496.248 321.054 493.309 327.977 491.619 332.024C487.706 334.274 483.115 337.5 478.75 338.59L478.245 337.976L478.49 336.857C479.159 334.871 480.779 332.687 481.879 330.866C485.522 324.84 488.317 320.231 494.725 316.75Z"/>
	<path fill="white" transform="scale(0.5 0.5)" d="M460.85 607.405C458.382 613.59 455.309 618.48 450.151 622.769C442.481 629.145 434.431 631.383 424.75 632.63C420.434 633.186 416.278 633.674 411.925 633.25L411.276 632.873C412.418 630.969 416.177 630.339 418.278 629.739C422.974 628.398 427.906 627.157 432.451 625.379C443.069 621.226 452.351 614.908 460.85 607.405Z"/>
	<path fill="white" transform="scale(0.5 0.5)" d="M484.796 696.795C489.858 696.401 495.92 695.861 500.958 696.658C505.272 697.34 508.924 699.267 512.846 701.046C518.773 703.735 524.824 706.565 530.326 710.053L515.618 706.596C501.255 704.092 485.613 706.532 471.091 707.328L478.397 697.178C480.498 696.859 482.672 696.879 484.796 696.795Z"/>
	<path fill="white" transform="scale(0.5 0.5)" d="M888.75 695.777L897.039 695.522L888.56 749.902C886.363 750.751 883.364 750.652 881.007 750.851L873.053 750.67L883.015 696.023L888.75 695.777Z"/>
	<path fill="white" transform="scale(0.5 0.5)" d="M257.141 338.75C258.849 339.354 258.706 341.188 259.097 342.848C262.257 356.284 268.532 368.558 275.524 380.365C279.167 386.519 284.242 392.701 289.011 398C303.844 414.481 323.038 428.952 344.883 434.382C351.796 436.1 360.737 436.539 367.578 434.243C371.202 433.027 374.547 430.839 377.801 428.878C376.445 431.825 375.148 434.383 373.097 436.915C370.053 439.861 366.647 440.912 362.603 441.692C341.377 445.786 320.666 433.438 303.796 421.971C283.882 408.435 266.896 387.342 258.292 364.875C255.299 357.057 253.221 348.312 251.651 340.098L257.141 338.75Z"/>
	<path fill="white" transform="scale(0.5 0.5)" d="M403.996 646.75L404.725 646.53C407.39 647.779 416.857 662.824 420.144 666.75C424.733 672.232 430.615 677.961 436.309 682.279C439.199 684.471 442.541 686.143 445.52 688.267C438.467 690.26 429.975 690.307 422.622 690.921C408.973 692.634 394.022 690.942 380.778 687.472L388.92 665.948C390.567 660.847 391.235 655.519 392.938 650.381L397.021 650.672C400.498 650.718 401.738 649.025 403.996 646.75Z"/>
	<path fill="white" transform="scale(0.5 0.5)" d="M863.642 696.713L870.19 696.511L859.983 750.962L816.298 752.004L808.792 752.091L823.2 716.216C825.922 709.787 828.399 703.573 831.879 697.507L863.642 696.713Z"/>
	<path fill="white" transform="scale(0.5 0.5)" d="M482.891 223.485C484.444 223.204 486.087 223.196 487.513 223.955C490.037 225.298 492.449 227.536 494.7 229.336L508.695 240.706C514.418 245.175 520.996 248.979 527.175 252.8C526.929 258.061 525.605 263.329 524.314 268.417C521.416 279.836 517.607 290.152 512.034 300.535C505.05 297.155 498.59 292.647 491.632 289.186C488.486 287.621 485.099 285.885 481.577 285.375C479.822 285.121 477.967 285.238 476.537 286.4C474.726 287.871 474.191 289.501 474.019 291.75C475.692 294.769 478.768 296.042 481.71 297.562L491.929 301.858C488.807 304.838 485.027 307.305 481.533 309.834L435.78 260.331C439.698 257.303 443.013 252.935 446.754 249.545C457.71 239.617 469.859 230.474 482.891 223.485Z"/>
	<path fill="white" transform="scale(0.5 0.5)" d="M987.13 327.75L987.776 327.771L987.897 328.22C988.76 331.7 988.493 335.522 988.729 339.093L989.677 354.75C989.973 359.318 990.511 364.112 989.83 368.661C987.869 381.757 983.88 395.019 981.007 407.987L962.798 490.387L923.18 676.551L919.861 694.797L910.932 735.531C910.129 739.338 910.02 746.764 907.866 749.81C907.336 750.559 905.775 750.571 904.896 750.738C903.524 750.661 902.628 750.751 901.429 750C901.355 743.795 902.619 737.644 903.48 731.514L909.099 696.029L926.381 610.804L930.767 587.56L954.974 472.36L968.443 411.679L976.505 374.063L982.781 342.969C983.851 338.067 984.446 331.988 987.13 327.75Z"/>
	<path fill="white" transform="scale(0.5 0.5)" d="M578.521 707.25C587.818 706.261 598.377 708.564 607.75 709.292L632.698 711.296C637.911 711.681 643.494 711.546 648.562 712.889C657.29 715.2 665.018 720.361 673.629 722.805C681.19 724.952 690.43 724.747 696.762 729.894C698.068 730.954 699.267 732.19 700.461 733.374C700.644 733.556 701.246 734.157 701.245 734.158C701.179 734.478 699.833 735.989 699.558 736.347C697.02 739.657 692.394 744.329 693.571 748.914C693.931 750.313 695.447 752.417 696.855 752.914C698.474 753.486 701.243 753.401 702.719 752.561C706.862 750.203 735.944 751.501 743.819 750.673C747.306 746.975 749.22 741.528 751.446 737L764.936 710.101C769.555 710.679 772.348 712.228 776.029 714.969L776.606 715.75C776.625 715.784 776.894 716.643 776.875 716.75C776.243 720.334 773.453 724.946 771.919 728.318L760.894 753.132L694.5 753.594L645.628 754.875C630.735 755.369 615.114 756.395 600.289 755.099C602.222 753.555 605.178 751.326 606.065 748.983C606.494 747.849 606.843 746.095 606.495 744.906C605.058 739.987 599.376 734.275 596.128 730.418L584.514 716.606C582.113 713.906 578.734 710.966 577.08 707.75L578.521 707.25Z"/>
	<path fill="white" transform="scale(0.5 0.5)" d="M920.947 760.016C922.21 759.73 923.008 759.917 924.25 760.167C925.537 762.209 924.968 767.088 925.005 769.567L925.588 785.681L925.066 785.941C921.984 786.535 917.739 786.016 914.542 786.056L892.919 786.453L834.361 787.315L677.134 790.537L574.615 792.881L548.245 793.216C544.845 793.193 540.408 793.601 537.27 792.23L536.629 790.498C535.722 784.128 534.946 777.75 535.266 771.304C538.593 771.114 541.828 771.033 545.15 771.358C548.202 771.657 551.273 772.408 554.354 772.009C556.612 771.717 559.078 770.427 561.18 769.568C561.603 769.395 561.998 768.964 562.447 769.047C562.878 769.126 564.389 770.364 564.85 770.665C567.972 772.703 571.442 774.265 575.25 774.009C578.406 773.797 580.695 772.037 583.164 770.257C584.442 769.336 585.676 768.175 587.32 768.125L661.35 766.845L817.153 764.135L873.941 762.772L894.969 762.504C897.17 762.374 899.32 761.839 901.5 761.701C904.78 761.495 907.633 763.352 911 763.051C914.262 762.759 917.848 761.117 920.947 760.016Z"/>
	<path fill="white" transform="scale(0.5 0.5)" d="M475.295 603.417C482.118 605.498 488.019 604.038 494.92 604.169C499.134 604.25 503.014 605.26 506.967 606.62C519.462 610.919 530.382 617.504 542.013 623.672C551.099 628.491 560.845 632.976 570.454 636.655C582.957 641.442 597.441 644.989 610.621 647.567C620.841 649.567 631.475 651.13 641.502 653.914C646.097 655.189 650.095 657.388 654.211 659.728C656.862 661.236 660.216 663.396 663.243 663.922C667.067 664.587 672.109 663.885 676.078 663.939L703.436 665.369C708.998 665.557 715.848 664.667 721.191 665.719C723.511 666.176 725.899 667.725 728.025 668.75L737.774 673.273C741.608 675.026 745.713 676.122 749.621 677.708C756.737 680.596 762.897 683.781 769.25 688.082C773.905 691.233 777.268 693.53 780.402 698.25C780.574 699.858 780.702 699.848 779.75 701.129C778.488 701.606 777.5 701.269 776.235 700.965C771.452 699.817 766.995 697.728 762.277 696.484C756.088 694.853 749.615 693.852 743.5 692.004C735.193 689.494 726.766 685.107 718.128 683.98L717.25 683.877C708.622 682.788 698.793 684.536 691.721 689.863L691.226 690.247C688.991 692.544 687.045 695.217 686.26 698.384C682.962 711.693 699.717 708.244 704.25 716.33C702.18 716.895 698.636 715.629 696.516 715.156C687.715 713.192 678.576 711.229 670.069 708.255C662.898 705.748 656.351 702.216 648.826 700.643C640.713 698.947 631.546 699.129 623.249 698.454C601.997 696.726 581.27 694.498 559.889 694.518C554.112 694.523 547.923 694.088 542.209 695.008C539.401 695.46 538.293 696.162 536.61 698.486L536.24 699.009L517.168 689.727C511.695 687.124 506.341 684.505 500.208 683.904C491.851 683.084 483.027 684.447 474.72 685.239C470.096 685.68 465.414 685.182 460.813 685.768L460.346 685.833C453.189 679.233 445.177 674.082 437.851 667.76C430.299 661.243 424.042 652.983 418.926 644.473C430.125 644.096 439.671 643.2 449.602 637.41C462.615 629.823 471.514 617.968 475.295 603.417Z"/>
	<path fill="white" transform="scale(0.5 0.5)" d="M417.276 125.697C426.401 124.374 436.864 126.299 445.463 129.356C453.79 132.317 461.749 136.847 469.415 141.207C478.363 146.295 487.146 151.226 495.143 157.785C515.622 174.583 529.791 196.813 542.743 219.537C546.266 225.719 549.917 231.643 552.917 238.125C554.391 241.312 554.984 243.869 553.75 247.244C551.686 248.87 548.625 247.657 546.24 247.083C537.507 244.984 529.656 240.402 522.25 235.411C514.977 230.511 494.371 211.536 487.206 210.926C484.561 210.701 481.456 210.965 478.948 211.788C472.831 213.794 466.92 218.278 461.838 222.094L440.488 239.331L425.382 252.303C422.648 250.853 420.189 248.112 417.865 246.067C411.558 240.518 405.195 234.622 398.116 230.056C395.796 228.559 393.394 226.946 390.747 226.093L390 225.87L388.525 225.438C384.471 224.496 379.462 224.973 375.27 224.994C370.031 225.021 363.947 225.059 359 226.982C354.769 228.627 351.843 232.279 348.835 235.513C344.935 239.705 340.945 243.915 337.365 248.388C331.806 255.337 327.696 263.782 320.175 268.735C320.673 258.816 324.359 249.165 326.9 239.605C332.293 219.317 336.568 198.367 346.675 179.779C349.113 175.294 351.622 170.708 354.892 166.765C362.348 157.773 370.814 150.659 379.497 142.932C382.855 139.943 386.46 136.082 390.249 133.744C398.328 128.756 407.955 126.605 417.276 125.697Z"/>
	<path fill="white" transform="scale(0.5 0.5)" d="M114.492 427.25C115.222 427.112 115.812 426.802 116.503 427.172C119.594 428.825 122.4 433.026 125.434 435.255C151.04 454.065 174.201 474.264 186.31 504.509C191.406 517.237 193.34 531.827 194.892 545.349C195.876 553.929 197.882 620.794 195.584 625.069C195.239 625.711 194.887 625.621 194.25 625.788C190.253 622.102 186.006 619.748 181.316 617.122C164.279 607.587 146.253 603.879 127.126 601.264C105.239 599.117 82.7748 600.818 61.7031 607.193C53.067 609.806 45.0263 612.813 37.6078 618.068L62.6603 526.52L72.8198 492.474L82.8581 458.194C84.4698 453.084 85.8407 447.743 88.0137 442.839C88.8399 440.974 89.7297 439.129 91.3784 437.844C93.4931 436.195 96.8161 435.22 99.3108 434.104L114.492 427.25Z"/>
	<path fill="white" transform="scale(0.5 0.5)" d="M365.11 237.483C366.852 237.418 368.613 237.312 370.25 238.016C386.074 244.82 374.118 267.346 379.796 279.31C380.542 280.882 381.512 282.205 383.25 282.733C384.691 283.171 385.934 283.081 387.25 282.372C391.309 280.186 393.485 276.397 395.617 272.514C399.478 265.484 402.349 258.338 404.513 250.616C411.675 257.76 417.579 265.853 424.084 273.595L452.407 305.482L466.642 319.666C467.095 320.137 469.201 321.964 469.352 322.487C470.239 325.547 466.578 331.296 465.75 334.228C464.809 337.558 464.578 343.343 465.903 346.569C466.604 348.275 468.196 349.902 469.945 350.546C478.124 353.559 484.759 349.975 492.08 346.833C492.734 348.056 492.419 350.612 492.458 352.082L492.84 367.718C485.155 366.292 475.324 364.193 467.542 365.65C466.328 366.491 465.567 367.154 464.972 368.54C464.225 370.275 464.293 372.453 465.092 374.155C466.439 377.026 468.732 377.587 471.484 378.563C471.12 380.275 470.817 382.138 470.14 383.755C469.423 385.467 468.439 386.477 466.75 387.126C462.095 386.137 458.016 382.849 453.839 380.686C451.749 379.603 448.899 378.858 446.616 379.775C445.42 380.255 444.23 381.373 443.75 382.579C441.678 387.786 450.422 391.694 452.501 395.75C452.419 397.587 451.945 398.313 450.831 399.75C449.995 399.921 449.623 399.876 448.818 399.574C447.77 399.18 446.35 398.376 445.199 398.658C442.998 399.196 440.985 400.252 439.665 402.148C437.959 404.598 438.735 408.229 439.095 410.991C436.306 414.87 433.16 418.544 429.299 421.39C414.112 419.911 389.553 397.919 378.002 387.715L374.217 384.368L372.75 383.071C370.248 381.004 367.461 378.529 364 378.937C362.227 379.146 360.908 379.951 359.861 381.404C358.891 382.75 358.924 384.258 359.174 385.838C359.837 390.024 367.062 394.705 370.383 397.167C363.958 398.815 358.425 400.561 353.754 405.566C351.323 408.172 350.106 410.878 350.431 414.487C350.567 416.002 351.279 417.121 352.483 418.029C360.023 423.714 362.652 410.261 368.862 409.446C370.404 409.244 372.548 409.086 373.75 410.074L372.736 415.294C371.71 418.736 370.288 419.508 367.276 421.13C359.196 425.482 349.663 423.285 341.427 420.812C337.398 419.602 333.804 417.643 330.094 415.704C309.369 404.875 291.567 386.104 280.523 365.55C279.325 363.318 272.986 348.908 273.755 347.451C274.235 346.542 277.726 344.875 278.777 344.151C280.715 342.815 282.402 341.303 283.958 339.534C292.705 329.586 300.832 318.226 306.5 306.25C310.572 297.646 313.434 288.36 316.14 279.257C318.465 279.392 321.228 279.744 323.511 279.277C328.034 278.353 332.129 274.476 334.756 270.931C334.081 276.876 335.083 284.48 337.554 289.954C339.765 294.852 344.672 303.3 349.932 305.163C351.3 305.647 352.959 305.633 354.25 304.91C355.794 304.044 356.857 302.459 357.232 300.75C358.283 295.957 352.262 291.299 350.037 287.277C345.214 278.563 345.943 265.249 348.714 255.917C350.822 248.817 358.734 240.933 365.11 237.483Z"/>
	<path fill="white" transform="scale(0.5 0.5)" d="M104.841 612.722C130.406 611.207 153.595 617.31 176.52 628.143C177.025 632.994 174.837 638.577 173.297 643.093C172.443 645.599 171.348 648.283 171.586 650.975C171.707 652.336 172.242 655.679 173.264 656.454C180.205 661.713 190.384 664.309 198.678 666.855C234.602 677.879 271.735 683.896 308.814 689.615L379.661 700.116C387.453 701.108 395.414 703.137 403.25 703.479C423.996 704.384 444.263 700.628 464.703 697.963L459.001 708C458.16 709.344 456.685 710.605 456.013 712C455.803 712.437 455.881 713.997 455.912 714.5C456.014 716.166 457.008 718.423 458.349 719.443C461.594 721.915 471.515 719.679 475.762 719.297L489.463 718.723C496.753 718.314 504.351 717.387 511.594 718.571C517.417 719.523 522.819 722.409 527.879 725.313C540.981 732.834 551.358 742.377 562.829 751.99C564.446 753.345 570.164 757.969 570.321 759.75L568.5 760.825C564.671 759.884 561.399 759.722 557.5 760.365L556.851 760.478C552.891 754.793 548.027 749.557 541.02 747.798C537.935 747.023 534.497 746.954 531.328 746.671C529.589 746.516 526.386 746.543 524.834 745.922C523.895 745.545 522.554 743.734 521.883 742.956C518.502 739.028 515.678 733.907 511.958 730.402C509.792 728.36 507.288 728.409 504.5 728.636C502.975 729.615 502.362 729.874 501.482 731.5C501.469 738.019 505.457 742.494 509.283 747.287C513.151 752.133 517.187 756.702 520.612 761.89L519.543 769.25C518.198 774.572 514.614 777.29 510.138 779.936L507.75 779.005C504.823 777.847 503.275 776.018 501.037 773.934L489.982 762.782C487.788 760.419 484.734 756.186 481.305 755.898C479.034 755.707 478.157 756.338 476.581 757.75C476.083 758.691 475.617 759.623 475.491 760.695C474.687 767.524 491.43 780.829 495.543 786.75C496.454 788.062 496.4 789.634 496.073 791.14C495.548 793.565 494.569 794.65 492.5 795.909C490.312 796.103 488.352 796.074 486.25 795.349C482.499 794.056 479.254 791.354 476.055 789.084L462.007 778.737C459.584 776.773 457.007 774.097 454.202 772.788C452.271 771.888 450.876 771.893 448.91 772.655C447.283 773.286 446.191 774.262 445.548 775.902C442.272 784.263 458.842 787.899 461.463 794C460.889 795.089 460.091 795.814 458.997 796.369C457.119 797.322 454.295 797.824 452.207 797.525C450.284 797.25 448.247 796.35 446.411 795.72C438.102 792.869 431.417 788.617 423.915 784.136L397.046 768.039C395.213 766.945 390.669 763.601 388.544 763.723C380.911 764.162 373.011 767.266 365.5 768.837L320.268 776.696C282.324 781.609 244.098 782.008 205.905 781.369L141.513 778.052C119.777 776.075 98.1488 773.249 77.3925 766.227C60.8648 760.635 43.196 751.122 35.2762 734.741C33.7294 731.542 32.5589 728.136 32.1735 724.589C31.5931 719.25 32.1552 713.445 32.3394 708.08L33.4952 686C34.7496 673.619 37.0906 661.445 39.3523 649.223C40.351 643.826 40.9927 637.581 42.9492 632.438C45.0668 626.871 49.0291 624.986 54.1423 622.763C70.0738 615.838 87.62 613.387 104.841 612.722Z"/>
	<path fill="white" transform="scale(0.5 0.5)" d="M238.773 343.75L240.154 343.752C242.527 356.321 246.501 367.94 252.034 379.5C264.285 405.095 284.844 426.043 309.373 440.162C314.859 443.32 320.681 446.576 326.668 448.687C340.977 453.732 358.281 458.672 372.761 451.571C379.575 448.229 385.606 441.831 387.852 434.5C389.766 428.25 390.444 419.371 387.108 413.514L386.722 412.849L387.126 411.75L388.25 411.545C390.369 413.875 392.891 415.27 395.362 417.154C397.209 418.563 398.884 420.214 400.789 421.546C403.908 423.726 407.398 425.615 410.678 427.545C414.188 429.61 417.779 431.988 421.752 433C425.618 433.983 429.992 433.716 433.89 433.054L434.662 432.919C437.395 437.544 439.4 442.518 441.713 447.347C443.598 451.283 445.703 455.159 447.382 459.187C454.353 475.918 458.512 493.379 460.421 511.371L463.22 547.915C464.249 557.156 466.595 566.136 467.849 575.323C468.052 576.814 468.648 578.824 467.597 580.069C462.083 586.603 457.569 594.022 451.422 599.989C449.346 602.004 446.867 603.482 444.5 605.12C430.087 615.091 412.761 617.812 397.555 625.915C391.166 629.321 383.378 635.727 381.026 642.836C380.178 645.398 380.592 648.738 380.111 651.446C379.284 656.099 377.898 660.908 376.542 665.437C374.89 670.959 372.403 676.286 369.967 681.5C369.112 683.33 368.544 685.41 366.75 686.384L306.237 676.846C275.052 671.814 243.811 667.163 213.283 658.844L201.836 655.143C196.389 653.476 189.293 651.805 184.57 648.733C185.89 644.208 186.535 639.72 187.134 635.055C189.952 635.733 192.807 636.459 195.104 638.341C198.007 640.721 198.302 644.781 202.75 645.386C204.538 645.629 206.538 645.786 207.898 644.402C209.216 643.06 209.543 641.673 209.521 639.878C209.474 635.921 208.787 631.978 208.652 628.017L208.543 600.845C208.492 551.811 209.228 500.041 173.793 461.418C165.734 452.634 156.937 444.095 147.605 436.678C140.426 430.972 132.37 425.834 125.888 419.354C129.526 416.115 133.451 413.376 137.273 410.372L156.328 395.048L171.022 382.119C179.76 374.803 188.81 367.608 198.513 361.611C211.035 353.87 224.751 348.095 238.773 343.75Z"/>
</svg>
