<?xml version="1.0" encoding="utf-8" ?>
<svg xmlns="http://www.w3.org/2000/svg" xmlns:xlink="http://www.w3.org/1999/xlink" width="512" height="512">
	<path fill="white" transform="scale(0.5 0.5)" d="M419.77 113.166C423.34 112.802 426.915 113.405 430.461 113.821C434.497 114.295 438.398 114.66 442.353 115.681C451.246 117.975 459.798 122.447 467.859 126.739C475.061 130.574 482.769 134.444 489.635 138.832C508.038 150.597 523.894 167.855 535.953 185.977L549.246 207.903C554.099 216.101 560.98 225.122 563.725 234.25L564.039 235.25C565.747 239.154 565.713 244.38 565.357 248.605C565.092 251.74 562.947 254.894 560.524 256.792C557.744 258.967 554.495 260.168 550.934 259.651L550.25 259.543C546.4 258.983 542.682 258.099 538.987 256.881C537.368 262.156 536.386 267.657 535.012 273C532.15 284.13 528.194 294.98 523.17 305.318C524.844 307.067 526.594 308.743 527.78 310.877C529.118 313.286 527.045 320.408 526.251 322.988L526.011 323.75C523.098 333.204 515.5 339.237 508.466 345.666C507.847 346.233 505.874 347.641 505.542 348.326C505.171 349.096 505.371 352.01 505.325 352.972C505.035 359.072 505.232 366.282 503.99 372.25C503.459 374.803 501.886 376.799 499.707 378.183C495.045 381.143 485.82 379.238 480.57 378.292C480.556 384.675 480.803 391.149 475.75 395.922C472.091 399.378 468.068 399.114 463.395 399.013L463.459 405.25C463.12 409.118 460.623 410.55 457.08 411.241C456.627 411.329 454.845 411.49 454.561 411.677C454.256 411.877 453.396 413.573 453.165 413.968C450.471 418.576 449.524 424.059 445.163 427.493L444.771 427.791C448.113 437.083 454.625 445.35 457.55 454.791C457.808 455.624 458.027 456.313 458.435 457.094L459.969 460.5C460.973 462.906 461.36 465.614 462.456 467.922C464.333 471.876 464.756 475.933 466.005 480C468.216 487.205 470.107 494.94 471.188 502.42L472.707 516.814C473.556 522.355 473.351 527.92 473.52 533.5C473.68 538.825 474.433 543.848 475.127 549.09C475.516 552.022 475.551 555.134 476.358 557.984L478.293 567.338L482.02 580C482.713 582.018 483.857 583.907 484.644 585.9C485.441 587.92 485.981 589.863 487.117 591.75C488.952 592.798 492.093 592.409 494.21 592.438C503.077 592.56 510.88 594.604 518.944 598.243C534.098 605.082 547.913 614.817 563.367 621.125C573.503 625.262 584.467 629.192 595.096 631.814L642.825 642.182C651.614 644.534 659.289 650.44 668.215 651.524C682.867 653.304 697.938 652.405 712.677 653.578C722.14 654.331 731.155 656.803 740.52 657.805C749.399 658.755 758.225 658.336 767 660.506C778.071 663.244 787.829 668.068 793.853 678.197C795.021 680.16 796.381 682.146 797.228 684.268L797.565 685.152L800.75 685.643C801.886 685.824 802.962 685.973 804.118 685.988L860.756 684.608L895.109 684.042C896.13 684.027 899.102 684.261 899.324 683.982C899.641 683.584 899.97 680.133 900.105 679.369L903.379 662.303L917.034 595.147L936.486 503.488L965.361 368.25L971.18 341.068C971.948 336.9 971.087 331.977 972.331 327.983C973.854 323.091 977.399 318.357 981.042 314.83C984.082 311.887 988.643 308.012 993.12 308.279C995.009 308.392 996.608 309.064 997.831 310.541C1000.17 313.363 999.689 321.095 999.966 324.76L1001.37 339.431L1001.55 353.754C1001.73 359.92 1002.06 366.207 1001.26 372.341C999.999 381.999 996.863 391.774 994.474 401.204L991.18 417.198L986.056 439.75L952.407 595.896L941.015 650C938.255 663.244 934.881 676.592 933.587 690.088C933.403 695.808 933.586 701.793 934.058 707.5C934.348 711.017 935.131 714.453 935.335 718L936.078 742.479L937.395 763.695L937.466 776.75C937.662 780.916 939.426 789.041 937.329 792.709C935.547 795.827 933.609 796.636 930.212 797.439C926.805 798.245 922.935 797.959 919.447 797.985L898.793 798.074L812.733 799.659L611.867 803.65L564.981 804.671L545.656 805.275C540.621 805.231 533.35 804.845 529.126 801.928C527.067 800.507 526.026 797.103 525.484 794.763L525.318 794.011C524.595 790.829 524.501 787.714 524.382 784.464L523.972 784.899C518.568 790.309 514.959 791.655 507.353 791.687L505.127 799.409C503.883 802.811 501.515 804.869 498.264 806.285L497.5 806.61L495.778 807.373C487.767 810.456 479.224 804.762 472.293 801.493C469.444 804.468 465.685 806.947 461.767 808.21C456.723 809.837 451.353 809.738 446.25 808.44C441.199 807.156 436.386 804.388 431.758 802.045C419.756 795.97 408.051 789.238 396.846 781.784L390.653 777.57C390.451 777.425 389.101 776.302 388.898 776.277C388.355 776.21 386.821 776.688 386.215 776.808L378.971 778.25L317.924 789.193L283.205 792.098C249.525 794.244 215.788 794.064 182.074 792.53C157.795 791.425 134.028 789.924 110 786.016C91.551 783.015 72.7053 779.297 55.9316 770.622C40.5145 762.65 27.3117 751.262 22.0023 734.221C19.8985 727.469 20.3686 720.878 20.3969 713.889C20.4948 689.721 23.5462 665.441 28.2773 641.743C26.216 641.593 24.3643 641.289 22.3688 640.75C21.6098 640.007 21.3143 639.859 20.9622 638.801C20.3837 637.064 20.7219 635.124 21.1341 633.383L34.283 585.201L57.1412 504.3L70.5308 457.827C72.8381 450.216 74.5266 441.831 78.5087 434.886C84.6705 424.138 95.7066 423.223 105.609 417.957C110.476 415.368 115.186 411.759 119.714 408.611C130.748 400.94 141.292 392.644 151.505 383.912C166.489 371.1 180.825 358.006 198.101 348.25C211.746 340.544 226.752 334.831 241.675 330.181C245.335 329.04 248.927 327.686 252.651 326.75C258.126 325.374 264.217 323.71 269.848 323.506C270.795 323.472 272.594 323.263 273.474 323.5C275.029 323.917 277.415 325.776 278.879 326.647C281.804 324.517 284.436 320.235 286.478 317.25C289.741 312.479 292.885 307.635 295.355 302.394C300.621 291.219 303.694 278.873 306.932 267L323.743 204.955C327.956 191.228 333.248 176.339 341.693 164.576C348.375 155.269 356.079 148.385 364.366 140.66C372.82 132.781 381.649 123.581 392.505 119.067C401.439 115.352 410.381 114.686 419.77 113.166ZM238.191 343.75C224.107 347.863 211.31 354.298 198.454 361.242C195.079 363.065 191.971 365.547 188.824 367.745C175.961 376.726 164.772 387.469 152.788 397.524L125.49 419.266C132.799 426.014 140.732 431.389 148.378 437.632C166.153 452.146 183.377 470.191 193.001 491.25C196.303 498.475 198.688 505.914 200.833 513.544L204.808 532.698C205.845 536.859 205.84 541.956 206.181 546.263C206.488 550.134 207.268 553.939 207.459 557.847L207.556 571.602L208.092 623.982C208.181 629.823 210.226 637.188 208.75 642.786C207.599 644.1 207.086 645.046 205.22 645.25C203.395 645.45 201.494 645.142 200.097 643.905C198.725 642.692 198.244 641.466 197.25 640.032C195.136 636.982 191.538 635.948 188.152 635.008L186.743 634.606L184.387 648.822C191.419 652.457 198.667 654.545 206.194 656.867C234.7 665.663 264.229 670.04 293.594 674.858L367.1 686.728C373.646 678.12 377.902 663.966 379.935 653.484C380.561 650.257 380.224 646.605 381.13 643.528C382.052 640.395 384.048 637.228 386.267 634.838C390.03 630.785 394.236 628.28 399.019 625.634C415.697 616.408 436.271 613.868 450.952 600.923C457.73 594.947 463.187 586.023 468.587 578.745C467.096 568.617 464.717 558.568 463.595 548.398L460.306 508.503C457.247 481.212 447.531 456.973 435.043 432.743C431.263 433.153 427.522 433.768 423.75 433.076L422.98 432.948C418.457 432.156 414.198 429.317 410.297 426.982C406.36 424.625 402.355 422.408 398.684 419.632C394.568 416.519 390.499 412.56 385.947 410.16C388.47 417.263 389.986 422.658 388.387 430.25L388.215 431.338C386.946 438.794 382.342 445.111 376.131 449.284C368.186 454.622 357.022 455.583 347.75 454.148C326.651 450.885 308.65 440.942 292.062 427.916C282.25 420.21 273.933 412.45 266.413 402.433C255.772 388.261 248.425 372.848 243.346 355.902L240.25 343.585C239.372 343.495 239.077 343.501 238.191 343.75ZM108.2 612.219C89.1082 612.902 70.1605 615.636 52.4804 623.167C47.8904 625.123 43.7669 628.334 42.1392 633.25C40.466 638.304 40.0006 644.014 39.0155 649.25L34.0434 676.75C33.2014 682.707 33.1817 688.991 32.8166 695L31.5324 715.508C31.3477 720.161 31.0787 725.214 32.7904 729.622C36.3319 738.743 40.9536 745.587 48.6824 751.927C50.812 753.675 53.277 755.013 55.5142 756.624C62.6475 761.76 71.7291 764.83 80.0314 767.393C88.7153 770.073 97.5272 772.449 106.5 773.99C134.559 778.806 163.339 779.583 191.75 780.672L209.028 781.602L278.23 780.77C292.733 780.066 307.748 779.204 322.056 776.714L361.5 769.906L379 765.909C382.28 765.082 386.332 763.788 389.776 764.165C390.231 764.215 391.513 765.114 391.951 765.356L399.002 769.707C411.638 777.26 424.217 785.711 437.309 792.412C444.449 796.066 454.356 800.534 461.38 794.75C461.197 792.967 460.133 791.912 458.764 790.745C454.968 787.508 445.784 783.936 445.52 778.25C445.45 776.728 446.086 775.025 447.25 774.033C448.527 772.944 450.307 772.267 452 772.384C456.169 772.672 460.31 777.728 463.44 780.25L475.377 788.965C480.464 792.54 486.327 797.724 493.023 796.145C494.679 794.781 496.163 793.51 496.421 791.25C496.621 789.497 496.685 787.666 495.522 786.25C491.571 781.438 486.627 777.007 482.392 772.395C479.279 769.005 475.982 765.322 475.75 760.525L475.868 760.084C476.261 758.706 476.785 757.408 478.085 756.642C479.615 755.741 481.133 755.955 482.75 756.506C484.932 757.249 487.219 760.099 488.836 761.75C494.64 767.674 501.017 776.188 508.491 779.635L510.218 780.463C514.364 777.558 518.783 774.268 519.928 769C520.263 767.458 521.092 763.377 520.914 761.842C520.845 761.246 518.899 758.934 518.479 758.346C513.057 750.768 501.248 741.356 502.005 731.25C503.976 729.382 504.414 728.819 507.25 728.831C510.303 728.844 512.681 731.786 514.576 733.942C517.336 737.081 519.538 740.748 522.353 743.955C522.764 744.423 523.835 745.924 524.321 746.175C525.407 746.734 528.575 746.791 529.89 746.933C533.874 747.364 538.93 747.444 542.716 748.627C548.713 750.501 553.157 755.837 557.047 760.494L557.747 760.431C561.376 760.139 567.181 761.556 570.25 760.091C570.25 758.624 568.915 757.292 567.905 756.25C563.651 751.864 558.453 748.021 553.776 744.064C546.131 737.594 538.79 731.758 530.279 726.417C524.703 722.918 518.922 719.689 512.405 718.32C509.135 717.633 505.346 717.66 502 717.708L474.412 719.161C469.996 719.529 465.455 720.586 461 720.159C459.783 720.042 458.878 719.669 457.996 718.795C456.481 717.294 456.277 715.263 456.052 713.25C456.826 710.585 458.517 709.225 459.911 706.995L465.009 697.902C444.696 700.193 424.37 704.012 403.842 703.132C396.465 702.816 388.914 701.29 381.628 700.049L359 696.602C305.65 688.791 251.746 681.924 199.859 666.848C191.27 664.353 181.075 662.324 173.886 656.693C172.403 655.532 172.067 653.503 171.932 651.742C171.547 646.748 173.9 642.42 175.315 637.766C176.292 634.552 176.648 631.483 176.846 628.157C155.877 618.664 131.615 610.495 108.2 612.219ZM365.364 237.25C357.929 240.79 351.072 248.481 348.36 256.232L346.736 263.06C345.046 269.396 346.207 274.89 347.253 281.125C347.473 282.441 347.936 283.522 348.431 284.75L348.73 285.533C350.565 290.083 358.458 296.421 356.75 301.349C356.168 303.029 355.138 303.942 353.75 304.966C352 305.281 350.902 305.426 349.25 304.621L348.715 304.367C345.588 302.77 343.301 299.349 341.43 296.5L340.948 295.788C338.12 291.556 336.206 286.513 335.426 281.5L335.306 280.802L334.57 270.901L334.156 271.424C331.593 274.606 327.531 278.58 323.25 279.003L315.777 279.224C310.519 298.075 303.148 314.97 291.037 330.475C286.066 336.84 281.496 342.147 274.605 346.493C274.032 346.855 272.979 346.902 272.884 347.573C272.832 347.936 273.561 349.828 273.706 350.301C274.929 354.279 276.729 359.437 278.75 363.056C290.244 383.647 304.316 400.647 324.717 412.995C331.205 416.923 337.459 420.141 344.818 422.151C351.414 423.951 361.173 425.188 367.25 421.577C368.738 420.693 371.537 418.81 372.314 417.337C372.9 416.226 373.258 413.791 373.508 412.5L373.835 410C372.498 409.114 370.566 408.841 369 409.155C363.133 410.33 359.707 422.05 353.274 418.215C351.881 417.385 350.933 416.05 350.663 414.439C350.176 411.543 351.388 408.717 353.241 406.543C357.546 401.492 364.516 398.625 370.913 397.537C367.306 394.466 359.785 389.78 359.298 384.863C359.129 383.151 359.795 381.63 361.06 380.499C362.227 379.455 363.734 379.197 365.25 379.406C368.2 379.814 370.294 381.444 372.421 383.402C389.909 398.024 406.551 415.795 429.088 422.159C432.712 418.736 436.267 415.377 439.219 411.341C438.972 407.775 438.189 404.595 440.633 401.614C441.937 400.024 443.886 399.412 445.75 398.716C447.917 398.883 448.898 400.281 451.051 399.548C452.173 397.733 452.477 397.462 452.416 395.25C450.207 392.51 442.963 387.462 443.696 383.703C444.026 382.013 445.009 380.881 446.5 380.05C448.018 379.205 449.834 379.352 451.426 379.91C456.931 381.842 461.161 386.003 467.043 387.52C469.716 385.187 471.132 383.164 471.519 379.5L471.533 378.5C470.372 377.951 471.124 378.255 469.822 377.864C467.823 377.263 466.228 376.03 465.334 374.111C464.514 372.349 464.273 370.398 465.143 368.603C465.723 367.408 466.708 366.328 468 365.966C470.559 365.248 473.383 365.516 476 365.709C481.809 366.137 487.273 367.297 493.004 368.09L492.485 346.45C484.669 349.359 477.663 353.59 469.25 349.723C467.608 348.969 466.517 347.455 466.007 345.757C464.944 342.212 465.168 337.111 466.25 333.599C467.058 330.976 470.608 325.231 469.852 322.574C469.635 321.811 454.074 306.981 452.184 304.992C448.386 300.993 445.12 296.546 441.444 292.446L422.425 271.306C416.413 264.147 411.134 256.71 404.321 250.204L404.183 250.773C402.165 258.802 398.27 267.812 393.926 274.872C392.271 277.561 390.429 280.107 387.615 281.688C385.85 282.68 384.663 282.723 382.75 282.195C380.569 280.626 379.045 278.038 378.641 275.354C377.219 265.908 380.224 256.193 378.199 246.75L378.078 246.127C377.359 242.796 374.515 240.248 371.75 238.498C369.812 237.271 367.616 237.113 365.364 237.25ZM115.609 426.47L101.58 432.658C98.3003 434.029 93.5028 435.377 90.9123 437.789C88.6961 439.853 87.5156 442.703 86.4405 445.474L84.3053 452.05L37.6084 618.179L38.0287 617.899C55.0232 606.837 76.9981 603.089 96.856 601.537C106.889 600.753 117.046 600.32 127.067 601.619C151.413 604.353 175.667 611.247 195.195 626.58C197.423 616.854 196.56 606.046 196.538 596.105C196.496 577.565 196.483 559.195 194.513 540.75C193.325 529.632 191.557 517.965 187.644 507.437C176.206 476.663 152.586 455.461 127.055 436.165C123.157 433.219 119.832 428.804 115.609 426.47ZM419.408 125.205C410.929 126.196 402.192 127.458 394.411 131.156C387.274 134.547 382.496 140.048 376.713 145.25C368.628 152.522 360.368 159.354 353.617 167.975C350.015 172.575 347.384 177.831 344.786 183.041C335.395 201.87 331.01 222.336 325.736 242.561C323.475 251.23 319.903 260.142 319.961 269.205C328.403 263.2 333.055 254.247 339.363 246.295C342.393 242.475 345.939 238.973 349.269 235.412C351.99 232.502 354.741 229.112 358.5 227.484C363.245 225.429 368.59 225.437 373.667 225.251C377.787 225.1 382.219 224.575 386.308 225.198L389.5 226.007L390.415 226.276C396.09 228.005 400.339 232.101 404.94 235.633C410.278 239.732 415.416 243.643 420.104 248.522C421.681 250.164 423.675 251.444 425.532 252.751L439.15 240.882L459.356 224.464C465.935 219.324 473.468 212.806 482 211.396L482.714 211.269C488.475 210.283 492.791 213.452 497.218 216.653C512.695 227.84 526.42 242.47 545.563 247.168C547.564 247.66 549.924 248.528 552 248.415C552.628 248.381 553.18 248.128 553.75 247.892C555.084 244.771 555.141 242.804 553.82 239.662C549.752 229.984 543.798 220.675 538.398 211.686C526.147 191.293 512.379 170.859 493.341 156.148C486.489 150.853 478.796 146.424 471.302 142.104C463.488 137.601 455.588 132.861 447.118 129.663C438.767 126.51 428.324 124.148 419.408 125.205ZM475.402 603.25C473.663 606.929 472.73 610.892 470.925 614.568C465.493 625.63 454.203 636.311 442.578 640.554L441.25 641.005L440.535 641.251C433.46 643.631 425.977 643.656 418.637 644.472C423.325 652.687 429.027 660.18 435.925 666.689C438.319 668.948 441.169 670.719 443.738 672.773L460.187 686.081C464.568 686.041 469.056 686.157 473.42 685.799C483.331 684.986 495.277 682.286 505.002 685.358C515.796 688.767 525.9 694.584 536.211 699.236L536.646 698.709C539.443 695.415 542.232 695.058 546.327 694.744C552.071 694.302 557.962 694.699 563.719 694.797L617.962 698.279C628.041 699.08 639.068 698.842 648.937 701.038C655.514 702.502 661.5 705.49 667.801 707.751C675.032 710.346 682.463 712.171 689.901 714.046C692.406 714.677 702.575 717.831 704.25 716.216C703.148 714.738 702.137 713.448 700.517 712.511C695.17 709.419 685.041 708.974 686.191 700.415C686.72 696.478 688.369 694.102 690.614 690.996L691.214 690.504C695.166 687.299 700.024 685.379 705 684.407L705.566 684.288C719.386 681.602 733.145 689.35 746.046 693.022C752.297 694.8 758.758 695.617 765.017 697.51C769.287 698.801 775.413 702.141 779.862 701.345C780.622 700.05 780.55 699.437 780.447 698C778.291 694.072 773.914 690.956 770.25 688.502C763.473 683.962 756.007 680.04 748.461 676.942C744.664 675.383 740.69 674.258 736.927 672.615C732.227 670.562 727.322 667.37 722.525 665.81L720.75 665.455L720.071 665.32C714.886 664.37 709.096 665.123 703.816 665.005L675.602 663.718C671.311 663.674 666.7 664.482 662.481 663.484C655.417 661.812 649.31 655.997 642.085 653.898C628.889 650.064 615.082 648.274 601.648 645.405C586.494 642.17 572.12 637.311 557.869 631.295C540.088 623.789 524.019 611.293 505.459 605.802C499.322 603.986 493.835 603.968 487.516 604.012C483.933 604.037 480.261 604.35 476.75 603.563L475.905 603.379L475.402 603.25ZM921.556 759.449C918.259 760.702 914.907 762.107 911.371 762.474C908.122 762.812 905.181 761.603 902 761.495C898.89 761.39 895.456 762.022 892.282 762.088L862.447 762.65L663.25 766.467L615.25 767.476C606.079 767.621 596.662 767.206 587.534 767.987C586.066 768.112 585.434 768.532 584.25 769.322C579.713 772.35 576.037 774.518 570.404 773.205C568.35 772.726 566.192 771.353 564.482 770.155C564.15 769.922 562.72 768.734 562.445 768.687C561.434 768.513 556.573 771.258 554.712 771.464C551.259 771.847 547.674 771.195 544.224 771.025L534.976 771.03C534.872 777.033 534.485 785.547 536.405 791.25C537.402 792.751 537.624 792.696 539.407 793.075C543.961 794.042 549.394 793.47 554.059 793.471L598.5 792.512L777.237 788.517L892.878 786.594L914.25 786.35C918.067 786.355 922.069 786.707 925.858 786.293L925.399 769.311C925.334 766.15 925.83 762.124 923.75 759.597L921.556 759.449ZM987 327.75C983.677 333.999 982.789 340.876 981.434 347.75L977.205 369.159L968.68 409.106L954.042 474L940.969 537.5L930.037 588.75L925.174 614.866L913.413 673.25L908.046 699.25L904.82 721.159C903.296 730.449 900.305 741.028 901.153 750.371L904.135 751.099L907.75 750.371C910.584 745.131 910.048 740.209 911.328 734.628L923.525 675.988L963.308 489.376L981.067 408.934C983.978 395.882 987.828 382.926 989.884 369.7C991.336 360.36 989.636 349.679 989.024 340.269C988.779 336.514 989.105 331.913 987.984 328.334L987.771 327.761L987 327.75ZM482.89 223.25C467.318 231.804 453.161 242.462 440.694 255.135C439.036 256.82 436.825 258.536 435.482 260.442L481.532 309.942C485.102 307.304 489.022 304.892 492.146 301.733L482.285 297.507C479.203 296.225 476.319 294.936 474.466 292C474.386 289.856 474.807 288.618 476.281 287.015C477.201 286.015 478.403 285.558 479.75 285.54C487.543 285.438 497.961 293.181 504.526 297.026C506.648 298.268 509.712 300.38 512.142 300.738C520.133 285.293 525.011 269.845 527.593 252.648C518.926 247.877 511.218 242.461 503.552 236.236C498.651 232.255 493.208 226.907 487.687 223.885C486.131 223.033 484.608 222.857 482.89 223.25ZM581.32 706.702L577.25 707.295L576.97 708C578.63 711.493 581.822 713.921 584.378 716.75C588.592 721.413 592.24 726.633 596.25 731.468C599.114 734.92 604.539 739.33 605.8 743.754C606.223 745.238 606.339 747.448 605.799 748.911C604.964 751.177 601.813 753.65 599.965 755.089C620.425 757.448 641.696 755.507 662.251 754.583L692.895 753.645L697 753.47L697.25 753.14L696.508 752.674C694.948 751.629 694.121 750.096 693.896 748.253C693.379 744.035 696.486 740.17 699.056 737.099L701.585 734.252C699.075 731.753 696.754 729.601 693.75 727.724L693.096 727.3C687.93 724.114 679.801 724.101 673.861 722.502C664.536 719.992 656.282 714.816 646.97 712.333C642.326 711.094 637.31 711.309 632.537 710.954L606.469 708.905L588.288 706.954C586.042 706.796 583.539 706.416 581.32 706.702ZM865.82 696.227L831.925 697.111C830.194 699.289 828.987 702.396 827.81 704.918L820.208 722.951L808.631 751.973L814.921 752.346L847.5 751.509C851.17 751.436 856.919 752.348 860.303 751.247L870.484 696.223L865.82 696.227ZM404.628 645.954C403.29 647.118 401.267 649.29 399.594 649.846C397.592 650.511 394.745 650.448 392.641 650.537C391.302 655.495 390.246 660.751 388.674 665.61L382.596 681.865C382.054 683.321 380.629 686.221 380.799 687.699C393.643 691.049 407.86 692.918 421.117 691.41C429.222 690.586 437.75 690.525 445.599 688.288L434.995 680.991C429.317 676.702 423.813 671.152 419.426 665.553C414.325 659.042 410.626 651.826 404.628 645.954ZM255.993 338.75L251.248 339.808C252.059 345.303 253.201 351.272 255.076 356.5C256.381 360.139 257.108 364.075 258.893 367.5C261.505 372.514 263.394 377.901 266.396 382.75C273.67 394.497 283.742 406.788 294.5 415.508C300.203 420.131 306.531 424.098 312.728 428.019C319.473 432.287 326.95 436.659 334.548 439.164C344.788 442.541 359.086 444.964 369.252 440.002C370.84 439.227 372.064 438.346 373.29 437.083C375.506 434.63 376.604 431.987 377.882 428.983C374.475 430.843 370.932 432.968 367.213 434.138C358.78 436.792 349.046 435.432 340.719 432.948C310.806 424.024 284.862 398.001 270.508 371.003C266.275 363.04 262.429 354.511 260.197 345.76C259.665 343.676 259.26 339.631 257.265 338.548L255.993 338.75ZM882.697 695.651L872.881 750.925C877.207 750.954 882.567 751.613 886.75 750.654L888.75 750.245L897.118 695.483L882.697 695.651ZM764.797 709.634L753.302 732.723C750.287 738.82 747.75 745.68 743.303 750.884L718.096 751.038C712.554 751.278 707.252 751.454 701.907 753.119L714.082 753.464L761.136 753.513L771.464 729.856C773.535 725.319 776.046 720.935 777.448 716.127C773.676 712.1 770.115 710.58 764.797 709.634ZM489.979 696.218L478.964 696.739C477.095 697.225 472.299 705.229 470.92 707.155L470.954 707.457C481.935 706.736 492.989 705.63 504 705.928C505.72 705.975 508.517 705.713 510.122 706.206L528.835 709.469C525.184 706.621 521.101 704.57 516.957 702.548C508.126 698.241 500.468 695.253 490.432 696.149L489.979 696.218ZM460.631 607.773C449.581 617.23 437.055 624.169 423.088 628.21C420.659 628.912 412.27 630.548 411.264 632.876L411.75 633.325C424.956 634.044 440.74 631.624 450.877 622.393C455.725 617.979 458.341 613.855 460.631 607.773ZM494.68 316.75C488.736 319.488 485.392 324.599 482.068 330C480.859 331.965 479.384 334.011 478.576 336.178L478.078 337.98L479.25 338.481C483.762 337.297 487.699 334.587 491.633 332.165C493.208 328.689 496.74 320.831 494.935 317.141L494.68 316.75ZM546.444 721.998L572.609 743.513C567.911 736.011 564.965 728.31 556 724.986C552.879 723.828 549.515 723.262 546.444 721.998ZM708.855 695.628L701.052 697.463C703.725 699.693 706.938 702.855 710.25 704.048L712.384 703.859C714.086 701.721 715.694 699.693 716.958 697.25L716.579 696.25C714.041 695.258 711.528 695.136 708.855 695.628ZM728.632 699.75C726.578 702.635 723.818 705.54 724.01 709.25C724.831 710.382 724.929 710.872 726.309 711.25L727.429 710.134C729.909 707.566 732.279 705.248 733.858 702C732.972 700.552 731.758 700.284 730.25 699.554L728.632 699.75ZM812.005 697.149L808.726 697.75C808.817 700.504 811.781 702.266 812.75 704.875C814.084 704.868 814.167 704.678 815.25 703.861C816.95 701.757 817.951 699.426 819.056 696.985L812.005 697.149ZM710.643 738.75L708.488 741.75L708.75 742.454C710.95 742.833 713.029 742.781 715.25 742.651L717.024 742.25C717.367 741.102 717.694 740.307 717.453 739.102C715.408 738.433 712.739 738.181 710.643 738.75ZM923.135 736.067C922.484 740.082 920.751 744.484 920.991 748.5C921.669 749.343 921.696 749.345 922.75 749.6C923.855 748.655 924.231 748.49 924.497 747C925.165 743.261 923.702 739.661 923.135 736.067ZM729.543 738.25C728.281 739.079 727.518 739.589 726.827 741C728.05 742.15 729.896 742.716 731.605 742.724L732.75 742.596C734.057 741.619 734.326 741.511 734.874 740C734.18 739.059 733.177 738.385 732 738.203C731.212 738.082 730.334 738.182 729.543 738.25ZM386.608 237.75L390.757 248.816L391.25 247.882C391.561 245.748 392.573 241.938 391.22 240.054C390.466 239.003 388.831 238.253 387.723 237.614L386.608 237.75ZM507.616 311.75C506.434 314.271 506.418 316.557 506.981 319.25L507.771 319.271L508.453 318.185L511.512 313.75C510.706 312.636 509.641 312.291 508.435 311.69L507.616 311.75Z"/>
</svg>
